<?xml version="1.0" standalone="no"?>
<!DOCTYPE svg PUBLIC "-//W3C//DTD SVG 20010904//EN"
 "http://www.w3.org/TR/2001/REC-SVG-20010904/DTD/svg10.dtd">
<svg version="1.0" xmlns="http://www.w3.org/2000/svg"
 width="200.000000pt" height="200.000000pt" viewBox="0 0 200.000000 200.000000"
 preserveAspectRatio="xMidYMid meet">
<metadata>
Created by potrace 1.16, written by Peter Selinger 2001-2019
</metadata>
<g transform="translate(0.000000,200.000000) scale(0.100000,-0.100000)"
fill="#000000" stroke="none">
<path d="M805 1986 c-41 -18 -80 -62 -104 -116 -45 -104 -50 -309 -12 -508 10
-51 15 -95 11 -97 -22 -14 -189 -46 -282 -54 -119 -12 -169 -31 -211 -81 -27
-31 -47 -87 -47 -129 0 -66 70 -459 115 -650 43 -179 112 -274 234 -323 51
-21 71 -23 221 -22 195 1 238 10 469 103 227 92 338 119 526 130 l110 6 3 417
c2 390 1 417 -15 422 -10 2 -43 8 -73 11 -194 25 -348 119 -454 277 -65 99
-109 198 -164 374 -64 201 -112 254 -232 254 -36 -1 -78 -7 -95 -14z m108
-184 c9 -10 42 -92 72 -182 140 -410 304 -600 595 -686 l75 -22 3 -245 2 -244
-69 -7 c-105 -11 -231 -48 -424 -126 -203 -82 -299 -109 -417 -117 -116 -8
-184 12 -234 67 -58 65 -45 90 49 90 67 0 85 11 85 51 0 40 -22 51 -119 58
-97 7 -131 24 -131 67 0 41 25 54 101 54 89 0 109 10 109 55 0 45 -15 52 -122
57 -98 5 -128 21 -128 68 0 42 23 54 105 54 77 1 88 6 99 43 12 38 -21 59
-104 67 -57 6 -77 12 -96 31 -29 29 -30 46 -6 73 13 16 37 23 112 32 166 19
424 94 437 126 3 7 -6 62 -20 121 -38 162 -50 264 -45 376 7 139 30 184 71
139z"/>
</g>
</svg>
