<svg width="24" height="24" viewBox="0 0 24 24" fill="none" xmlns="http://www.w3.org/2000/svg">
<path d="M19.406 14.442C20.832 14.382 22 13.584 22 11.936C22 10.936 21.014 5.563 20.514 3.686C19.8 0.997 18.043 0 15.505 0C13.222 0 11.426 0.617 10.169 1.158C7.584 2.271 5.504 3 2 3V12.928C5.086 13.329 8.43 13.884 10.4 20.672C10.883 22.332 11.372 24 13.233 24C16.681 24 16.238 18.469 15.429 15.186C16.536 14.72 18.196 14.494 19.406 14.442ZM19.199 12.45C16.45 12.604 14.139 13.463 13.079 14.006C13.51 15.753 14 17.468 14 19.539C14 22.044 13.219 23.205 12.321 20.113C10.328 13.254 7.264 11.749 4 11V5C6.521 4.928 8.72 3.959 10.959 2.995C12.69 2.25 15.808 1.5 17.375 2.381C18.67 3.217 18.489 4.115 17.667 4.042L16.896 4.01C16.081 3.916 15.976 5.078 16.787 5.151C16.787 5.151 18.108 5.213 18.532 5.266C19.508 5.389 19.56 6.873 18.492 6.817C18.035 6.793 17.349 6.776 17.349 6.776C16.552 6.745 16.474 7.854 17.208 7.948C17.208 7.948 17.922 7.953 18.969 8.047C20.016 8.141 20.047 9.656 18.965 9.61C18.097 9.573 17.896 9.583 17.896 9.583C17.146 9.588 17.022 10.611 17.755 10.698L19.149 10.865C20.224 10.995 20.254 12.391 19.199 12.45V12.45Z" fill="white"/>
</svg>
